<?xml version="1.0" encoding="UTF-8" standalone="no"?>
<!DOCTYPE svg PUBLIC "-//W3C//DTD SVG 1.1//EN" "http://www.w3.org/Graphics/SVG/1.1/DTD/svg11.dtd">
<svg width="100%" height="100%" viewBox="0 0 270 120" version="1.1" xmlns="http://www.w3.org/2000/svg" xmlns:xlink="http://www.w3.org/1999/xlink" xml:space="preserve" xmlns:serif="http://www.serif.com/" style="fill-rule:evenodd;clip-rule:evenodd;stroke-linejoin:round;stroke-miterlimit:2;">
    <g transform="matrix(2,0,0,2,-237.906,-19.7657)">
        <g>
            <clipPath id="_clip1">
                <rect x="118.953" y="12.121" width="135" height="55.5"/>
            </clipPath>
            <g clip-path="url(#_clip1)">
                <path d="M119.543,62.961L139.617,54.215L141.023,62.066C141.047,62.211 141.121,62.313 141.25,62.371C141.375,62.438 141.504,62.438 141.629,62.371L155.809,55.172L147.617,66.754C147.492,66.93 147.477,67.117 147.578,67.309C147.676,67.504 147.836,67.602 148.051,67.598L224.84,67.598C225.055,67.598 225.215,67.5 225.313,67.309C225.41,67.113 225.395,66.93 225.27,66.754L217.082,55.172L231.266,62.371C231.391,62.438 231.516,62.438 231.641,62.371C231.766,62.309 231.844,62.207 231.871,62.066L233.27,54.215L253.352,62.961C253.559,63.055 253.73,63.008 253.863,62.82C253.996,62.633 253.984,62.453 253.828,62.285L217.855,22.332C217.766,22.234 217.656,22.188 217.523,22.195C217.391,22.203 217.285,22.262 217.203,22.371L205.395,38.641L186.793,12.344C186.711,12.227 186.598,12.168 186.453,12.168C186.309,12.168 186.195,12.227 186.109,12.344L167.512,38.641L155.684,22.387C155.605,22.277 155.5,22.219 155.371,22.211C155.238,22.203 155.125,22.25 155.035,22.348L119.059,62.285C118.918,62.457 118.91,62.633 119.039,62.813C119.168,62.996 119.336,63.043 119.543,62.961ZM217.805,26.277L232.008,46.543L219.859,40.211L214.289,51.195L208.148,42.504L217.805,26.277ZM186.453,16.004L206.762,50.777L197.664,45.059L192.559,51.297L186.453,38.641L180.348,51.285L175.246,45.059L166.145,50.793L186.453,16.004ZM155.102,26.277L164.766,42.504L158.617,51.195L153.047,40.211L140.895,46.543L155.102,26.277Z" style="fill:rgb(74,125,167);"/>
            </g>
        </g>
        <g>
            <g>
                <clipPath id="_clip2">
                    <path d="M135.91,22.289L187.43,12.184L196.668,59.285L145.152,69.391L135.91,22.289Z"/>
                </clipPath>
                <g clip-path="url(#_clip2)">
                    <g>
                        <clipPath id="_clip3">
                            <path d="M135.91,22.289L187.43,12.184L196.668,59.285L145.152,69.391L135.91,22.289Z"/>
                        </clipPath>
                        <g clip-path="url(#_clip3)">
                            <g>
                                <clipPath id="_clip4">
                                    <path d="M135.918,22.289L187.418,12.184L196.891,60.465L145.391,70.566L135.918,22.289Z"/>
                                </clipPath>
                                <g clip-path="url(#_clip4)">
                                    <g>
                                        <clipPath id="_clip5">
                                            <path d="M135.918,22.289L187.418,12.184L196.664,59.309L145.164,69.414L135.918,22.289Z"/>
                                        </clipPath>
                                        <g clip-path="url(#_clip5)">
                                            <path d="M143.176,46.77C142.543,46.324 141.664,46.488 141.223,47.125C140.785,47.762 140.941,48.645 141.582,49.09L156.059,67.273L187.422,14.715C187.902,14.105 187.793,13.215 187.18,12.734C186.57,12.254 185.684,12.363 185.211,12.977L153.457,53.961L143.176,46.77" style="fill:rgb(254,160,50);fill-rule:nonzero;"/>
                                        </g>
                                    </g>
                                </g>
                            </g>
                        </g>
                    </g>
                </g>
            </g>
        </g>
    </g>
</svg>
