<?xml version="1.0" encoding="UTF-8" standalone="no"?>
<!DOCTYPE svg PUBLIC "-//W3C//DTD SVG 1.1//EN" "http://www.w3.org/Graphics/SVG/1.1/DTD/svg11.dtd">
<svg width="100%" height="100%" viewBox="0 0 2224 2224" version="1.1" xmlns="http://www.w3.org/2000/svg" xmlns:xlink="http://www.w3.org/1999/xlink" xml:space="preserve" xmlns:serif="http://www.serif.com/" style="fill-rule:evenodd;clip-rule:evenodd;stroke-linejoin:round;stroke-miterlimit:2;">
    <g transform="matrix(1,0,0,1,-11.4726,-285.388)">
        <circle cx="1560.33" cy="1713.67" r="1143.69" style="fill:rgb(148,196,233);"/>
    </g>
    <g transform="matrix(0.940902,0,0,0.940902,299.3,658.837)">
        <g transform="matrix(1,0,0,1,437.274,-31.4037)">
            <path d="M1052.51,551.038C1071.59,518.506 1106.48,498.52 1144.19,498.52C1181.91,498.52 1216.8,518.506 1235.87,551.038C1468.28,947.342 2062.14,1960.04 2062.14,1960.04L226.246,1960.04C226.246,1960.04 820.113,947.342 1052.51,551.038Z" style="fill:url(#_Linear1);"/>
        </g>
        <g transform="matrix(1,0,0,1,437.274,-31.4037)">
            <path d="M1052.51,551.038C1071.59,518.506 1106.48,498.52 1144.19,498.52C1181.91,498.52 1216.8,518.506 1235.87,551.038C1337.7,724.671 1487.92,980.835 1487.92,980.835C1487.92,980.835 1370.89,861.314 1303.43,861.091C1246.38,860.904 1255.19,1053.79 1219.9,1050.8C1166.14,1046.23 1151.41,860.999 1116.03,861.723C1059.18,862.887 1074.52,967.4 1000.05,972.578C952.268,975.9 947.206,897.917 916.827,892.581C834.729,878.162 742.703,1079.35 742.703,1079.35C742.703,1079.35 934.012,753.114 1052.51,551.038Z" style="fill:rgb(234,245,249);"/>
        </g>
    </g>
    <g transform="matrix(0.940902,0,0,0.940902,299.3,658.837)">
        <g transform="matrix(1,0,0,1,-242.596,-202.737)">
            <path d="M1052.51,551.038C1071.59,518.506 1106.48,498.52 1144.19,498.52C1181.91,498.52 1216.8,518.506 1235.87,551.038C1468.28,947.342 2062.14,1960.04 2062.14,1960.04L226.246,1960.04C226.246,1960.04 820.113,947.342 1052.51,551.038Z" style="fill:url(#_Linear2);"/>
        </g>
        <g transform="matrix(1,0,0,1,-242.596,-202.737)">
            <path d="M1052.51,551.038C1071.59,518.506 1106.48,498.52 1144.19,498.52C1181.91,498.52 1216.8,518.506 1235.87,551.038C1337.7,724.671 1487.92,980.835 1487.92,980.835C1487.92,980.835 1419.35,922.451 1374.44,920.957C1339.94,919.809 1334.32,978.811 1293.54,961.697C1245.07,941.356 1197.46,847.336 1168.38,847.931C1084.15,849.656 1112.76,930.074 980.248,901.087C898.818,883.273 742.703,1079.35 742.703,1079.35C742.703,1079.35 934.012,753.114 1052.51,551.038Z" style="fill:rgb(234,245,249);"/>
        </g>
    </g>
    <defs>
        <linearGradient id="_Linear1" x1="0" y1="0" x2="1" y2="0" gradientUnits="userSpaceOnUse" gradientTransform="matrix(-10.9629,-1233.56,1233.56,-10.9629,1152.99,1700.92)"><stop offset="0" style="stop-color:rgb(148,196,233);stop-opacity:1"/><stop offset="0.18" style="stop-color:rgb(86,132,163);stop-opacity:1"/><stop offset="0.39" style="stop-color:rgb(27,73,98);stop-opacity:1"/><stop offset="1" style="stop-color:rgb(2,48,71);stop-opacity:1"/></linearGradient>
        <linearGradient id="_Linear2" x1="0" y1="0" x2="1" y2="0" gradientUnits="userSpaceOnUse" gradientTransform="matrix(-0.995137,-1407.85,1407.85,-0.995137,1143.02,1875.2)"><stop offset="0" style="stop-color:rgb(148,196,233);stop-opacity:1"/><stop offset="0.18" style="stop-color:rgb(86,132,163);stop-opacity:1"/><stop offset="0.39" style="stop-color:rgb(27,73,98);stop-opacity:1"/><stop offset="1" style="stop-color:rgb(2,48,71);stop-opacity:1"/></linearGradient>
    </defs>
</svg>
