<?xml version="1.0" encoding="UTF-8" standalone="no"?>
<!DOCTYPE svg PUBLIC "-//W3C//DTD SVG 1.1//EN" "http://www.w3.org/Graphics/SVG/1.1/DTD/svg11.dtd">
<svg width="100%" height="100%" viewBox="0 0 2400 2400" version="1.1" xmlns="http://www.w3.org/2000/svg" xmlns:xlink="http://www.w3.org/1999/xlink" xml:space="preserve" xmlns:serif="http://www.serif.com/" style="fill-rule:evenodd;clip-rule:evenodd;stroke-linecap:round;stroke-linejoin:round;stroke-miterlimit:1.5;">
    <g transform="matrix(1.94145,-0.48037,0.48037,1.94145,-270.338,309.886)">
        <path d="M132.321,1077.46C135.044,1052.95 126.407,1027.54 107.089,1030.23C96.119,1031.75 102.595,1048.92 98.692,1053.42C82.104,1072.58 53.616,1067.33 56.992,1077.46C63.015,1095.53 92.801,1083.33 105.881,1085.94C112.968,1087.36 118.846,1097.67 125.836,1095.92C132.394,1094.28 131.758,1082.53 132.321,1077.46Z" style="fill:rgb(148,196,233);stroke:rgb(148,196,233);stroke-width:1.25px;"/>
        <path d="M744.608,637.869C749.511,630.667 725.818,618.094 721.613,616.693C705.228,611.231 679.559,621.454 666.189,628.139C655.029,633.719 656.99,644.893 653.538,655.248C645.402,679.657 621.337,704.579 592.693,697.418C590.558,696.884 584.558,688.232 580.645,690.189C577.705,691.659 578.187,696.912 577.03,699.225C574.963,703.36 565.938,704.418 563.777,707.659C557.343,717.309 552.072,726.839 544.499,736.575C530.486,754.593 500.234,770.233 478.232,775.733C465.441,778.931 452.921,775.132 440.28,776.938C413.998,780.692 388.386,790.86 362.567,796.818C341.325,801.72 319.108,799.698 297.505,802.24C265.98,805.949 236.611,820.154 206.538,828.747C187.319,834.238 154.61,841.48 139.067,852.241C110.485,872.028 65.373,883.666 60.182,922.602C58.982,931.6 60.54,946.399 64.968,955.256C78.115,981.549 108.228,965.283 116.174,973.329C131.192,988.535 122.274,997.957 128.825,1008.27C136.73,1020.71 150.16,1011.31 155.708,1021.48C159.689,1028.77 146.3,1036.04 152.28,1042.02C162.31,1052.05 173.08,1048.09 181.551,1056.56C186.958,1061.96 190.304,1073.23 196.899,1075.74C261.028,1100.16 280.441,1060.88 319.861,1044.45C330.555,1039.99 341.436,1056.42 354.839,1047.32C363.509,1041.43 357.098,1030.38 362.87,1024.61C379.418,1008.07 379.833,999.841 415.232,979.309C433.818,968.53 436.889,936.001 458.97,923.58C471.403,916.586 511.644,903.056 554.741,912.484C575.753,917.081 598.275,947.561 607.632,931.966C615.671,918.568 604.304,907.558 595.024,896.282C588.332,888.15 604.421,868.347 614.058,863.849C629.594,856.597 650.358,858.35 673.419,846.819C682.034,842.512 687.397,830.673 695.708,825.132C703.699,819.805 710.847,821.436 719.721,817.492C725.535,814.908 732.481,808.625 737.878,805.252C747.272,799.381 767.711,786.645 776.822,780.571C784.608,775.38 766.652,777.256 768.057,773.042C770.18,766.671 773.788,767.015 776.145,759.943C777.789,755.013 767.252,745.154 772.216,740.19C783.467,728.94 800.793,747.835 808.964,723.322C809.048,723.071 802.535,703.41 802.098,701.663C799.926,692.976 812.159,681.392 800.305,672.629C795.534,669.102 778.876,676.072 776.433,677.538C760.523,687.084 737.514,712.865 720.397,697.974C710.36,689.242 734.653,660.154 732.551,654.705C728.481,644.157 714.546,643.484 719.3,636.296C723.717,629.617 739.447,645.448 744.608,637.869Z" style="fill:rgb(148,196,233);stroke:rgb(148,196,233);stroke-width:1.25px;"/>
        <path d="M966.742,102.908C969.135,100.815 973.377,105.808 978.527,107.988C983.17,109.954 988.785,108.942 990.353,110.51C992.842,112.999 978.689,134.03 987.623,154.871C989.871,160.114 1000.68,151.098 1003.84,156.489C1006.86,161.653 997.207,165.242 999.311,170.394C1000.48,173.248 1004.34,170.851 1008.62,173.498C1017.7,179.13 1023.61,191.634 1032.12,203.217C1035.15,207.35 1035.13,209.822 1037.98,216.078C1039.52,219.441 1045.95,212.164 1048.71,216.057C1051.2,219.558 1043.15,238.615 1044.39,242.369C1049.61,258.156 1045.96,272.082 1041,281.427C1037.89,287.312 1031.39,280.389 1029.72,286.03C1028.7,289.466 1032.82,296.059 1034.03,300.921C1034.79,303.967 1038.67,322.278 1034.38,337.237C1032.65,343.258 1013.71,355.829 1019.02,366.439C1021.41,371.231 1029.11,362.474 1032.11,365.476C1033.19,366.555 1041.25,374.075 1041.7,374.97C1049.14,389.853 1029.23,409.408 1042.9,423.084C1047.26,427.445 1053.85,410.723 1054.51,408.752C1056.72,402.094 1062.79,355.907 1068.84,358.931C1078.01,363.516 1068.36,382.337 1074.3,388.278C1079.41,393.394 1086.32,383.663 1090.68,392.373C1092.71,396.434 1081.72,407.287 1080.44,411.482C1078.14,419.018 1082.57,422.976 1083.8,426.354C1085.79,431.78 1077.85,425.955 1074.3,438.781C1068.08,461.251 1078.06,489.045 1088.35,504.488C1092.96,511.405 1126.83,545.628 1134.59,548.216C1144.89,551.649 1151.78,553 1160.68,544.976C1167.39,538.935 1206.58,530.792 1212.84,537.058C1216.01,540.223 1214.84,544.78 1217.95,548.112C1224.8,555.45 1231.21,555.924 1232.21,557.935C1236.6,566.716 1217.07,571.655 1212.84,578.006C1210.5,581.518 1178.67,623.412 1176.67,624.415C1166.43,629.535 1150.84,633.862 1142.55,642.159C1133.57,651.134 1141.88,670.083 1131.32,676.619C1103.22,693.999 1125.53,668.308 1122.09,657.975C1117.53,644.313 1070.35,645.301 1062.25,651.085C1051.94,658.448 1047.03,663.1 1046.57,674.319C1046.28,681.518 1053.99,681.001 1053.15,684.755C1052.13,689.375 1041.96,695.851 1038.81,698.804C1024.98,711.773 914.952,789.065 887.083,796.032C880.918,797.573 856.968,807.015 851.128,801.176C844.782,794.829 849.452,780.39 848.398,779.337C842.949,773.888 837.661,778.745 832.019,775.924C825.406,772.618 831.082,764.068 829.289,762.275C825.537,758.523 816.71,758.079 813.592,753.403C807.184,743.79 824.186,738.384 831.336,736.341C853.749,729.937 891.892,704.468 901.631,681.743C914.784,651.052 879.131,634.694 868.19,612.812C864.089,604.609 869.255,593.935 864.095,586.196C856.108,574.215 838.515,566.531 843.621,548.66C850.823,523.452 904.208,540.289 915.281,533.645C930.005,524.811 943.585,490.165 952.817,476.317C955.278,472.626 959.511,474.4 961.689,472.222C968.335,465.576 974.727,451.608 978.751,443.558C986.077,428.907 983.026,413.084 984.811,396.985C987.653,371.364 992.312,348.249 987.623,324.808C986.125,317.315 980.892,279.424 978.961,265.909C977.07,252.675 963.659,185.892 964.419,182.853C965.819,177.252 972.203,175.88 973.974,170.568C976.76,162.21 971.768,144.629 971.43,135.274C971.025,124.063 962.192,106.889 966.742,102.908Z" style="fill:rgb(148,196,233);stroke:rgb(148,196,233);stroke-width:1.25px;"/>
    </g>
</svg>
